# xmcd CD database file
#
# Track frame offsets:
#	200
#	12770
#	28217
#	44077
#	61265
#	72910
#	87312
#	100957
#	117765
#	130870
#
# Disc length: 1944 seconds
#
# Revision: 0
# Processed by: cddbd v1.4PL0 Copyright (c) Steve Scherf et al.
# Submitted via: CDex 1.50beta10
#
DISCID=8607960a
DTITLE=James Alan - Mind Of My Heart
DYEAR=1900
DGENRE=Country
TTITLE0=She's Outta This World
TTITLE1=Mind Of My Heart
TTITLE2=Honky Tonk Lady
TTITLE3=Somethingt To Go On
TTITLE4=Prisoner Of Love
TTITLE5=Outta Sight
TTITLE6=Out On Our Own
TTITLE7=Takin' Back The Years
TTITLE8=Maybe Tonight
TTITLE9=Big Trouble With The Little Woman
EXTD=
EXTT0=
EXTT1=
EXTT2=
EXTT3=
EXTT4=
EXTT5=
EXTT6=
EXTT7=
EXTT8=
EXTT9=
PLAYORDER=
